<?xml version="1.0" encoding="utf-8"?>
<!-- Generator: Adobe Illustrator 23.0.3, SVG Export Plug-In . SVG Version: 6.00 Build 0)  -->
<svg version="1.1" id="Layer_1" xmlns="http://www.w3.org/2000/svg" xmlns:xlink="http://www.w3.org/1999/xlink" x="0px" y="0px"
	 viewBox="0 0 1792 203" style="enable-background:new 0 0 1792 203;" xml:space="preserve">
<style type="text/css">
	.st0{fill:#FFFFFF;}
	.st1{font-family:'FacebookSans-Regular';}
	.st2{font-size:168px;}
	.st3{letter-spacing:-2;}
</style>
<title>FindUsOn-FB_fr_FR-RGB-1869</title>
<g>
	<path class="st0" d="M1788.1,100.9c0-53.8-43.7-97.5-97.5-97.5s-97.5,43.7-97.5,97.5c0,48.7,35.7,89,82.3,96.3V129h-24.9v-28.2
		h24.9V79.3c0-24.4,14.5-38,36.7-38c10.7,0,21.7,2.1,21.7,2.1v23.8h-12.2c-12.1,0-16,7.6-16,15.3v18.3h27.1l-4.3,28.2h-22.7v68.2
		C1752.4,189.9,1788.1,149.6,1788.1,100.9"/>
</g>
<g>
	<text transform="matrix(1 0 0 1 -3.4745 166.7498)" class="st0 st1 st2 st3">Retrouvez-nous sur</text>
</g>
</svg>
